<mxfile host="Electron" agent="Mozilla/5.0 (Windows NT 10.0; Win64; x64) AppleWebKit/537.36 (KHTML, like Gecko) draw.io/28.0.6 Chrome/138.0.7204.100 Electron/37.2.3 Safari/537.36" version="28.0.6">
  <diagram name="Page-1" id="nNfrobSBWn5o5zRiFbxy">
    <mxGraphModel dx="2422" dy="2228" grid="1" gridSize="10" guides="1" tooltips="1" connect="1" arrows="1" fold="1" page="1" pageScale="1" pageWidth="850" pageHeight="1100" math="0" shadow="0">
      <root>
        <mxCell id="0" />
        <mxCell id="1" parent="0" />
        <mxCell id="G_MIEgFy3KnRou6Kr7c4-54" value="" style="rounded=0;whiteSpace=wrap;html=1;strokeColor=light-dark(#FFFFFF,#FFFFFF);align=center;verticalAlign=middle;fontFamily=Helvetica;fontSize=12;fontColor=#ffffff;fillColor=none;gradientColor=none;dashed=1;" parent="1" vertex="1">
          <mxGeometry x="-220" y="-180" width="691" height="690" as="geometry" />
        </mxCell>
        <mxCell id="G_MIEgFy3KnRou6Kr7c4-10" value="crm_prd_info" style="swimlane;fontStyle=0;childLayout=stackLayout;horizontal=1;startSize=30;horizontalStack=0;resizeParent=1;resizeParentMax=0;resizeLast=0;collapsible=1;marginBottom=0;whiteSpace=wrap;html=1;rounded=1;swimlaneLine=1;fillColor=#60a917;dashed=1;fontColor=#ffffff;strokeColor=default;opacity=50;textShadow=1;fontSize=25;" parent="1" vertex="1">
          <mxGeometry x="170" width="209" height="110" as="geometry" />
        </mxCell>
        <mxCell id="G_MIEgFy3KnRou6Kr7c4-11" value="prd_key" style="text;strokeColor=default;fillColor=none;align=left;verticalAlign=middle;spacingLeft=4;spacingRight=4;overflow=hidden;points=[[0,0.5],[1,0.5]];portConstraint=eastwest;rotatable=0;whiteSpace=wrap;html=1;textShadow=1;fontSize=25;rounded=1;" parent="G_MIEgFy3KnRou6Kr7c4-10" vertex="1">
          <mxGeometry y="30" width="209" height="40" as="geometry" />
        </mxCell>
        <mxCell id="VbxXY7FtINvNeHsZQNu--2" value="Product" style="text;html=1;strokeColor=#d6b656;fillColor=#fff2cc;align=center;verticalAlign=middle;whiteSpace=wrap;overflow=hidden;fontSize=25;fontColor=#0A000A;" vertex="1" parent="G_MIEgFy3KnRou6Kr7c4-10">
          <mxGeometry y="70" width="209" height="40" as="geometry" />
        </mxCell>
        <mxCell id="G_MIEgFy3KnRou6Kr7c4-12" value="&lt;b&gt;&lt;font style=&quot;font-size: 17px;&quot;&gt;Current and history product information&lt;/font&gt;&lt;/b&gt;" style="text;html=1;align=center;verticalAlign=middle;whiteSpace=wrap;rounded=0;fillColor=none;fontColor=#ffffff;strokeColor=#314354;opacity=50;shadow=0;" parent="1" vertex="1">
          <mxGeometry x="85" y="-60" width="379" height="60" as="geometry" />
        </mxCell>
        <mxCell id="G_MIEgFy3KnRou6Kr7c4-13" value="&lt;b&gt;crm_cust_info&lt;/b&gt;" style="swimlane;fontStyle=0;childLayout=stackLayout;horizontal=1;startSize=30;horizontalStack=0;resizeParent=1;resizeParentMax=0;resizeLast=0;collapsible=1;marginBottom=0;whiteSpace=wrap;html=1;rounded=1;swimlaneLine=1;fillColor=#60a917;fontColor=#ffffff;strokeColor=light-dark(#FFFFFF,#191919);opacity=50;textShadow=1;fontSize=25;" parent="1" vertex="1">
          <mxGeometry x="170" y="270" width="219" height="138" as="geometry" />
        </mxCell>
        <mxCell id="G_MIEgFy3KnRou6Kr7c4-14" value="cst_id" style="text;strokeColor=default;fillColor=none;align=left;verticalAlign=middle;spacingLeft=4;spacingRight=4;overflow=hidden;points=[[0,0.5],[1,0.5]];portConstraint=eastwest;rotatable=0;whiteSpace=wrap;html=1;textShadow=1;fontSize=25;rounded=1;" parent="G_MIEgFy3KnRou6Kr7c4-13" vertex="1">
          <mxGeometry y="30" width="219" height="34" as="geometry" />
        </mxCell>
        <mxCell id="G_MIEgFy3KnRou6Kr7c4-40" value="cst_key" style="text;strokeColor=default;fillColor=none;align=left;verticalAlign=middle;spacingLeft=4;spacingRight=4;overflow=hidden;points=[[0,0.5],[1,0.5]];portConstraint=eastwest;rotatable=0;whiteSpace=wrap;html=1;textShadow=1;fontSize=25;rounded=1;" parent="G_MIEgFy3KnRou6Kr7c4-13" vertex="1">
          <mxGeometry y="64" width="219" height="34" as="geometry" />
        </mxCell>
        <mxCell id="VbxXY7FtINvNeHsZQNu--7" value="Customer" style="text;html=1;strokeColor=#B20000;fillColor=#e51400;align=center;verticalAlign=middle;whiteSpace=wrap;overflow=hidden;fontSize=25;fontColor=#ffffff;" vertex="1" parent="G_MIEgFy3KnRou6Kr7c4-13">
          <mxGeometry y="98" width="219" height="40" as="geometry" />
        </mxCell>
        <mxCell id="G_MIEgFy3KnRou6Kr7c4-15" value="&lt;font style=&quot;font-size: 17px;&quot;&gt;&lt;b style=&quot;&quot;&gt;Customer Information&lt;/b&gt;&lt;/font&gt;" style="text;html=1;align=center;verticalAlign=middle;whiteSpace=wrap;rounded=0;fillColor=none;fontColor=#ffffff;strokeColor=#314354;opacity=50;shadow=0;" parent="1" vertex="1">
          <mxGeometry x="190" y="240" width="205" height="30" as="geometry" />
        </mxCell>
        <mxCell id="G_MIEgFy3KnRou6Kr7c4-16" value="&lt;b&gt;crm_sales_details&lt;/b&gt;" style="swimlane;fontStyle=0;childLayout=stackLayout;horizontal=1;startSize=30;horizontalStack=0;resizeParent=1;resizeParentMax=0;resizeLast=0;collapsible=1;marginBottom=0;whiteSpace=wrap;html=1;rounded=1;swimlaneLine=1;fillColor=#60a917;dashed=1;fontColor=#ffffff;strokeColor=#FFFFFF;opacity=50;textShadow=1;fontSize=25;" parent="1" vertex="1">
          <mxGeometry x="-182.5" y="100" width="220" height="140" as="geometry" />
        </mxCell>
        <mxCell id="G_MIEgFy3KnRou6Kr7c4-17" value="prd_key" style="text;strokeColor=#FFFFFF;fillColor=none;align=left;verticalAlign=middle;spacingLeft=4;spacingRight=4;overflow=hidden;points=[[0,0.5],[1,0.5]];portConstraint=eastwest;rotatable=0;whiteSpace=wrap;html=1;textShadow=1;fontSize=25;rounded=1;" parent="G_MIEgFy3KnRou6Kr7c4-16" vertex="1">
          <mxGeometry y="30" width="220" height="35" as="geometry" />
        </mxCell>
        <mxCell id="G_MIEgFy3KnRou6Kr7c4-39" value="cst_id" style="text;strokeColor=#FFFFFF;fillColor=none;align=left;verticalAlign=middle;spacingLeft=4;spacingRight=4;overflow=hidden;points=[[0,0.5],[1,0.5]];portConstraint=eastwest;rotatable=0;whiteSpace=wrap;html=1;textShadow=1;fontSize=25;rounded=1;" parent="G_MIEgFy3KnRou6Kr7c4-16" vertex="1">
          <mxGeometry y="65" width="220" height="35" as="geometry" />
        </mxCell>
        <mxCell id="VbxXY7FtINvNeHsZQNu--10" value="&lt;font style=&quot;color: rgb(10, 0, 10);&quot;&gt;Sales&lt;/font&gt;" style="text;html=1;align=center;verticalAlign=middle;whiteSpace=wrap;overflow=hidden;fontSize=25;fillColor=#eeeeee;strokeColor=#36393d;" vertex="1" parent="G_MIEgFy3KnRou6Kr7c4-16">
          <mxGeometry y="100" width="220" height="40" as="geometry" />
        </mxCell>
        <mxCell id="G_MIEgFy3KnRou6Kr7c4-18" value="&lt;b&gt;&lt;font style=&quot;font-size: 17px;&quot;&gt;Transactional Records about Sales &amp;amp; Orders&lt;/font&gt;&lt;/b&gt;" style="text;html=1;align=center;verticalAlign=middle;whiteSpace=wrap;rounded=0;fillColor=none;fontColor=#ffffff;strokeColor=#314354;opacity=50;shadow=0;" parent="1" vertex="1">
          <mxGeometry x="-222.5" y="70" width="300" height="30" as="geometry" />
        </mxCell>
        <mxCell id="G_MIEgFy3KnRou6Kr7c4-43" style="edgeStyle=orthogonalEdgeStyle;rounded=0;orthogonalLoop=1;jettySize=auto;html=1;exitX=1;exitY=0.5;exitDx=0;exitDy=0;entryX=0;entryY=0.5;entryDx=0;entryDy=0;fontFamily=Helvetica;fontSize=12;fontColor=#ffffff;" parent="1" source="G_MIEgFy3KnRou6Kr7c4-17" target="G_MIEgFy3KnRou6Kr7c4-11" edge="1">
          <mxGeometry relative="1" as="geometry" />
        </mxCell>
        <mxCell id="G_MIEgFy3KnRou6Kr7c4-44" style="edgeStyle=orthogonalEdgeStyle;rounded=0;orthogonalLoop=1;jettySize=auto;html=1;exitX=1;exitY=0.5;exitDx=0;exitDy=0;entryX=0;entryY=0.5;entryDx=0;entryDy=0;fontFamily=Helvetica;fontSize=12;fontColor=#ffffff;" parent="1" source="G_MIEgFy3KnRou6Kr7c4-39" target="G_MIEgFy3KnRou6Kr7c4-14" edge="1">
          <mxGeometry relative="1" as="geometry" />
        </mxCell>
        <mxCell id="G_MIEgFy3KnRou6Kr7c4-56" value="" style="rounded=0;whiteSpace=wrap;html=1;strokeColor=light-dark(#FFFFFF,#FFFFFF);align=center;verticalAlign=middle;fontFamily=Helvetica;fontSize=12;fontColor=#ffffff;fillColor=none;gradientColor=none;dashed=1;" parent="1" vertex="1">
          <mxGeometry x="540" y="-170" width="710" height="690" as="geometry" />
        </mxCell>
        <mxCell id="G_MIEgFy3KnRou6Kr7c4-55" value="&lt;b&gt;CRM&lt;/b&gt;" style="text;html=1;align=center;verticalAlign=middle;whiteSpace=wrap;rounded=0;fontFamily=Helvetica;fontSize=30;fontColor=#ffffff;textShadow=1;fillColor=#008a00;strokeColor=#005700;" parent="1" vertex="1">
          <mxGeometry x="17.5" y="-220" width="215" height="80" as="geometry" />
        </mxCell>
        <mxCell id="G_MIEgFy3KnRou6Kr7c4-57" value="&lt;b&gt;erp_px_cat_g1v2&lt;/b&gt;" style="swimlane;fontStyle=0;childLayout=stackLayout;horizontal=1;startSize=30;horizontalStack=0;resizeParent=1;resizeParentMax=0;resizeLast=0;collapsible=1;marginBottom=0;whiteSpace=wrap;html=1;rounded=1;swimlaneLine=1;fillColor=#6d8764;dashed=1;fontColor=#ffffff;strokeColor=#3A5431;opacity=50;textShadow=1;fontSize=25;" parent="1" vertex="1">
          <mxGeometry x="790" width="260" height="108" as="geometry" />
        </mxCell>
        <mxCell id="G_MIEgFy3KnRou6Kr7c4-58" value="id" style="text;strokeColor=default;fillColor=none;align=left;verticalAlign=middle;spacingLeft=4;spacingRight=4;overflow=hidden;points=[[0,0.5],[1,0.5]];portConstraint=eastwest;rotatable=0;whiteSpace=wrap;html=1;textShadow=1;fontSize=25;rounded=1;" parent="G_MIEgFy3KnRou6Kr7c4-57" vertex="1">
          <mxGeometry y="30" width="260" height="38" as="geometry" />
        </mxCell>
        <mxCell id="VbxXY7FtINvNeHsZQNu--3" value="Product" style="text;html=1;strokeColor=#d6b656;fillColor=#fff2cc;align=center;verticalAlign=middle;whiteSpace=wrap;overflow=hidden;fontSize=25;fontColor=#0A000A;" vertex="1" parent="G_MIEgFy3KnRou6Kr7c4-57">
          <mxGeometry y="68" width="260" height="40" as="geometry" />
        </mxCell>
        <mxCell id="G_MIEgFy3KnRou6Kr7c4-59" value="&lt;font style=&quot;font-size: 17px;&quot;&gt;&lt;b style=&quot;&quot;&gt;Product Categories&lt;/b&gt;&lt;/font&gt;" style="text;html=1;align=center;verticalAlign=middle;whiteSpace=wrap;rounded=0;fillColor=none;fontColor=#ffffff;strokeColor=#314354;opacity=50;shadow=0;" parent="1" vertex="1">
          <mxGeometry x="850" y="-40" width="160" height="45" as="geometry" />
        </mxCell>
        <mxCell id="G_MIEgFy3KnRou6Kr7c4-60" value="&lt;b&gt;erp_loc_a101&lt;/b&gt;" style="swimlane;fontStyle=0;childLayout=stackLayout;horizontal=1;startSize=30;horizontalStack=0;resizeParent=1;resizeParentMax=0;resizeLast=0;collapsible=1;marginBottom=0;whiteSpace=wrap;html=1;rounded=1;swimlaneLine=1;fillColor=#6d8764;dashed=1;fontColor=#ffffff;strokeColor=#3A5431;opacity=50;textShadow=1;fontSize=25;" parent="1" vertex="1">
          <mxGeometry x="780" y="380" width="275" height="105" as="geometry" />
        </mxCell>
        <mxCell id="G_MIEgFy3KnRou6Kr7c4-61" value="cid" style="text;strokeColor=default;fillColor=none;align=left;verticalAlign=middle;spacingLeft=4;spacingRight=4;overflow=hidden;points=[[0,0.5],[1,0.5]];portConstraint=eastwest;rotatable=0;whiteSpace=wrap;html=1;textShadow=1;fontSize=25;rounded=1;" parent="G_MIEgFy3KnRou6Kr7c4-60" vertex="1">
          <mxGeometry y="30" width="275" height="35" as="geometry" />
        </mxCell>
        <mxCell id="VbxXY7FtINvNeHsZQNu--8" value="Customer" style="text;html=1;strokeColor=#B20000;fillColor=#e51400;align=center;verticalAlign=middle;whiteSpace=wrap;overflow=hidden;fontSize=25;fontColor=#ffffff;" vertex="1" parent="G_MIEgFy3KnRou6Kr7c4-60">
          <mxGeometry y="65" width="275" height="40" as="geometry" />
        </mxCell>
        <mxCell id="G_MIEgFy3KnRou6Kr7c4-62" value="&lt;font style=&quot;font-size: 17px;&quot;&gt;&lt;b style=&quot;&quot;&gt;Location of Customers(country)&lt;/b&gt;&lt;/font&gt;" style="text;html=1;align=center;verticalAlign=middle;whiteSpace=wrap;rounded=0;fillColor=none;fontColor=#ffffff;strokeColor=#314354;opacity=50;shadow=0;" parent="1" vertex="1">
          <mxGeometry x="850" y="340" width="190" height="30" as="geometry" />
        </mxCell>
        <mxCell id="G_MIEgFy3KnRou6Kr7c4-63" value="&lt;b&gt;crm_cust_info&lt;/b&gt;" style="swimlane;fontStyle=0;childLayout=stackLayout;horizontal=1;startSize=30;horizontalStack=0;resizeParent=1;resizeParentMax=0;resizeLast=0;collapsible=1;marginBottom=0;whiteSpace=wrap;html=1;rounded=1;swimlaneLine=1;fillColor=#6d8764;dashed=1;fontColor=#ffffff;strokeColor=#3A5431;opacity=50;textShadow=1;fontSize=25;" parent="1" vertex="1">
          <mxGeometry x="780" y="180" width="275" height="101" as="geometry" />
        </mxCell>
        <mxCell id="G_MIEgFy3KnRou6Kr7c4-64" value="cid" style="text;strokeColor=default;fillColor=none;align=left;verticalAlign=middle;spacingLeft=4;spacingRight=4;overflow=hidden;points=[[0,0.5],[1,0.5]];portConstraint=eastwest;rotatable=0;whiteSpace=wrap;html=1;textShadow=1;fontSize=25;rounded=1;" parent="G_MIEgFy3KnRou6Kr7c4-63" vertex="1">
          <mxGeometry y="30" width="275" height="31" as="geometry" />
        </mxCell>
        <mxCell id="VbxXY7FtINvNeHsZQNu--9" value="Customer" style="text;html=1;strokeColor=#B20000;fillColor=#e51400;align=center;verticalAlign=middle;whiteSpace=wrap;overflow=hidden;fontSize=25;fontColor=#ffffff;" vertex="1" parent="G_MIEgFy3KnRou6Kr7c4-63">
          <mxGeometry y="61" width="275" height="40" as="geometry" />
        </mxCell>
        <mxCell id="G_MIEgFy3KnRou6Kr7c4-65" value="&lt;font style=&quot;font-size: 17px;&quot;&gt;&lt;b style=&quot;&quot;&gt;Extra customer information (birthdate)&lt;/b&gt;&lt;/font&gt;" style="text;html=1;align=center;verticalAlign=middle;whiteSpace=wrap;rounded=0;fillColor=none;fontColor=#ffffff;strokeColor=#314354;opacity=50;shadow=0;" parent="1" vertex="1">
          <mxGeometry x="830" y="140" width="220" height="29" as="geometry" />
        </mxCell>
        <mxCell id="G_MIEgFy3KnRou6Kr7c4-75" value="&lt;b&gt;ERP&lt;/b&gt;" style="text;html=1;align=center;verticalAlign=middle;whiteSpace=wrap;rounded=0;fontFamily=Helvetica;fontSize=30;textShadow=1;fillColor=#6d8764;strokeColor=#3A5431;fontColor=#ffffff;" parent="1" vertex="1">
          <mxGeometry x="810" y="-220" width="215" height="80" as="geometry" />
        </mxCell>
        <mxCell id="G_MIEgFy3KnRou6Kr7c4-76" style="edgeStyle=orthogonalEdgeStyle;rounded=0;orthogonalLoop=1;jettySize=auto;html=1;entryX=1;entryY=0.5;entryDx=0;entryDy=0;fontFamily=Helvetica;fontSize=12;fontColor=#ffffff;" parent="1" source="G_MIEgFy3KnRou6Kr7c4-64" target="G_MIEgFy3KnRou6Kr7c4-14" edge="1">
          <mxGeometry relative="1" as="geometry" />
        </mxCell>
        <mxCell id="G_MIEgFy3KnRou6Kr7c4-77" style="edgeStyle=orthogonalEdgeStyle;rounded=0;orthogonalLoop=1;jettySize=auto;html=1;entryX=1;entryY=0.5;entryDx=0;entryDy=0;fontFamily=Helvetica;fontSize=12;fontColor=#ffffff;" parent="1" source="G_MIEgFy3KnRou6Kr7c4-61" target="G_MIEgFy3KnRou6Kr7c4-14" edge="1">
          <mxGeometry relative="1" as="geometry" />
        </mxCell>
        <mxCell id="G_MIEgFy3KnRou6Kr7c4-78" style="edgeStyle=orthogonalEdgeStyle;rounded=0;orthogonalLoop=1;jettySize=auto;html=1;entryX=1;entryY=0.5;entryDx=0;entryDy=0;fontFamily=Helvetica;fontSize=12;fontColor=#ffffff;" parent="1" source="G_MIEgFy3KnRou6Kr7c4-58" target="G_MIEgFy3KnRou6Kr7c4-11" edge="1">
          <mxGeometry relative="1" as="geometry" />
        </mxCell>
      </root>
    </mxGraphModel>
  </diagram>
</mxfile>
